# xmcd
#
# Track frame offsets: 
#        150
#        26274
#        46555
#        67233
#        86929
#        117448
#        135700
#        147654
#        164338
#        183434
#        213194
#
# Disc length: 3220 seconds
#
# Revision: 0
# Processed by: cddbd v1.5.2PL0 Copyright (c) Steve Scherf et al.
# Submitted via: ExactAudioCopy v0.95b3
#
DISCID=a00c920b
DTITLE=Elton John  - Captain Fantastic and The Brown Dirt Cowboy  FLAC
DYEAR=1900
DGENRE=
TTITLE0=Captain Fantastic and The Brown Dirt Cowboy
TTITLE1=Tower Of Babel
TTITLE2=Bitter Fingers
TTITLE3=Tell Me When The Whistle Blows
TTITLE4=Someone Saved My Life Tonight
TTITLE5=(Gotta Get) A Meal Ticket
TTITLE6=Better Off Dead
TTITLE7=Writing
TTITLE8=We All Fall In Love Sometimes
TTITLE9=Curtains
TTITLE10=Lucy In The Sky With Diamonds
EXTD=
EXTT0=
EXTT1=
EXTT2=
EXTT3=
EXTT4=
EXTT5=
EXTT6=
EXTT7=
EXTT8=
EXTT9=
EXTT10=
PLAYORDER=
